<?xml version="1.0" encoding="utf-8"?>
<!-- Svg Vector Icons : http://www.onlinewebfonts.com/icon -->
<!DOCTYPE svg PUBLIC "-//W3C//DTD SVG 1.1//EN" "http://www.w3.org/Graphics/SVG/1.1/DTD/svg11.dtd">
<svg version="1.1" xmlns="http://www.w3.org/2000/svg" xmlns:xlink="http://www.w3.org/1999/xlink" x="0px" y="0px" viewBox="0 0 256 256" enable-background="new 0 0 256 256" xml:space="preserve">
<metadata> Svg Vector Icons : http://www.onlinewebfonts.com/icon </metadata>
<g><g><g><path fill="#000000" d="M126,152.6c0,1.3-0.5,2.5-1.5,3.5l-51,51l22.1,22.1c2,2,2.9,4.3,2.9,6.9c0,2.7-1,5-2.9,6.9c-2,2-4.3,2.9-6.9,2.9H19.8c-2.7,0-5-1-6.9-2.9c-2-2-2.9-4.3-2.9-6.9v-68.8c0-2.7,1-5,2.9-6.9c2-2,4.3-2.9,6.9-2.9c2.7,0,5,1,6.9,2.9l22.1,22.1l51-51c1-1,2.2-1.5,3.5-1.5c1.3,0,2.5,0.5,3.5,1.5l17.5,17.5C125.5,150.1,126,151.3,126,152.6z M246,19.8v68.8c0,2.7-1,5-2.9,6.9c-1.9,2-4.3,2.9-6.9,2.9c-2.7,0-5-1-6.9-2.9l-22.1-22.1l-51,51c-1,1-2.2,1.5-3.5,1.5c-1.3,0-2.5-0.5-3.5-1.5l-17.5-17.5c-1-1-1.5-2.2-1.5-3.5c0-1.3,0.5-2.5,1.5-3.5l51-51l-22.1-22.1c-2-2-2.9-4.3-2.9-6.9c0-2.6,1-5,2.9-6.9c1.9-1.9,4.3-2.9,6.9-2.9h68.8c2.7,0,5,1,6.9,2.9C245,14.9,246,17.2,246,19.8z"/></g></g></g>
</svg>