<?xml version="1.0" encoding="utf-8"?>
<!-- Svg Vector Icons : http://www.onlinewebfonts.com/icon -->
<!DOCTYPE svg PUBLIC "-//W3C//DTD SVG 1.1//EN" "http://www.w3.org/Graphics/SVG/1.1/DTD/svg11.dtd">
<svg version="1.1" xmlns="http://www.w3.org/2000/svg" xmlns:xlink="http://www.w3.org/1999/xlink" x="0px" y="0px" viewBox="0 0 256 256" enable-background="new 0 0 256 256" xml:space="preserve">
<metadata> Svg Vector Icons : http://www.onlinewebfonts.com/icon </metadata>
<g><g><g><path fill="#000000" d="M33.3,55c-8.8,1.9-16.7,8.3-20.6,16.5C10,77.6,10,76.9,10,128c0,40.7,0.1,47.1,0.7,50.1c1.9,9.2,7.7,16.6,16.1,20.7c6.5,3.1,2.9,3,79.1,3c60.9,0,69.1-0.1,72.2-0.7c8.9-1.8,16.5-7.6,20.5-15.6c2.5-5,2.8-7,3.1-18.3l0.3-10.5l21.8,14.5c12,8,21.8,14.5,22,14.5c0.2,0,0.3-26,0.3-57.8V69.9l-22.1,14.8l-22.1,14.8v-9c0-10.5-0.6-14.4-3-19.4c-4.1-8.4-11.5-14.2-20.7-16.1c-3.1-0.6-11.3-0.7-72.6-0.7C46.3,54.3,36,54.4,33.3,55z M178.5,70.3c2.9,1.5,5.7,4.3,7.2,7.2l1.1,2.3V128v48.2l-1.1,2.3c-1.5,2.9-4.3,5.7-7.2,7.2l-2.3,1.1h-70.3H35.6l-2.3-1.1c-2.9-1.5-5.7-4.3-7.2-7.2l-1.1-2.3l-0.1-47c-0.1-32.8,0-47.7,0.4-49.1c1.1-4.5,5.3-9,9.9-10.4c1.5-0.5,15.7-0.6,71.5-0.5l69.6,0.1L178.5,70.3z M231.3,128v30.4l-14.8-9.8l-14.7-9.8l0-10.9v-10.9l14.7-9.7c8-5.4,14.7-9.8,14.8-9.8C231.2,97.6,231.3,111.2,231.3,128z"/></g></g></g>
</svg>