<?xml version="1.0" encoding="utf-8"?>
<!-- Svg Vector Icons : http://www.onlinewebfonts.com/icon -->
<!DOCTYPE svg PUBLIC "-//W3C//DTD SVG 1.1//EN" "http://www.w3.org/Graphics/SVG/1.1/DTD/svg11.dtd">
<svg version="1.1" xmlns="http://www.w3.org/2000/svg" xmlns:xlink="http://www.w3.org/1999/xlink" x="0px" y="0px" viewBox="0 0 256 256" enable-background="new 0 0 256 256" xml:space="preserve">
<metadata> Svg Vector Icons : http://www.onlinewebfonts.com/icon </metadata>
<g><g><g><path fill="#000000" d="M117.2,10.4C89,13.1,63.1,25.6,43.4,46C29,60.7,19.1,78.4,13.8,98.2c-8.1,30.9-3.2,64.1,13.5,91.4c4.7,7.5,10.3,14.6,17.2,21.5c9.7,9.7,17.9,15.8,29.3,21.7c38.4,19.8,83.5,17.3,119.3-6.5c50.4-33.5,67.3-98.7,39.6-152.4c-5.9-11.3-11.9-19.6-21.7-29.3c-9.5-9.5-19-16.4-30.5-22.1C161.3,12.8,138.4,8.4,117.2,10.4z M143.4,25.9c46.8,7.3,82.8,45.3,87.4,92.2c2.5,25.6-4.7,51.2-20.4,72.2c-4.2,5.6-14.5,15.9-20.1,20.1c-41,30.6-96.9,27.3-133.7-7.9c-16.7-16-27.2-36.3-30.9-59.5c-1.1-7.1-1.1-22.9,0-30.2c7.3-46.9,44.6-82.5,91.6-87.6C122.8,24.6,137.9,25,143.4,25.9z"/><path fill="#000000" d="M93.5,90.2c-2.1,0.9-3.6,3-4.1,5.4c-0.6,3.3,0.1,4.2,14.5,18.7l13.7,13.7l-13.9,13.9C90.3,155.4,89.8,156,89.5,158c-0.8,5.4,4.2,9.9,9.3,8.3c1.3-0.5,4.8-3.6,15.5-14.2l13.7-13.7l13.7,13.7c11.6,11.6,14,13.7,15.6,14.3c5.4,1.6,10.5-3.6,8.9-8.9c-0.5-1.6-2.7-4.1-14.3-15.7L138.4,128l13.7-13.7c10.6-10.6,13.7-14.1,14.2-15.5c1.6-5.1-2.8-10.1-8.3-9.3c-2,0.3-2.6,0.8-16.1,14.2L128,117.6l-13.5-13.5C98.8,88.5,98.2,88.1,93.5,90.2z"/></g></g></g>
</svg>