<?xml version="1.0" encoding="utf-8"?>
<!-- Svg Vector Icons : http://www.onlinewebfonts.com/icon -->
<!DOCTYPE svg PUBLIC "-//W3C//DTD SVG 1.1//EN" "http://www.w3.org/Graphics/SVG/1.1/DTD/svg11.dtd">
<svg version="1.1" xmlns="http://www.w3.org/2000/svg" xmlns:xlink="http://www.w3.org/1999/xlink" x="0px" y="0px" viewBox="0 0 256 256" enable-background="new 0 0 256 256" xml:space="preserve">
<metadata> Svg Vector Icons : http://www.onlinewebfonts.com/icon </metadata>
<g><g><g><path fill="#000000" d="M181.6,10h32.2c8.9,0,16.5,3.2,22.8,9.4s9.4,13.9,9.4,22.8v32.2c0,3-1.1,5.5-3.2,7.6c-2.1,2.1-4.6,3.2-7.6,3.2c-3,0-5.5-1.1-7.6-3.2s-3.2-4.6-3.2-7.6V42.2c0-3-1.1-5.5-3.1-7.6c-2.1-2.1-4.6-3.2-7.6-3.2h-32.2c-3,0-5.5-1.1-7.6-3.2c-2.1-2.1-3.2-4.6-3.2-7.6c0-3,1.1-5.5,3.2-7.6C176.1,11.1,178.7,10,181.6,10L181.6,10z M20.8,170.9c3,0,5.5,1,7.6,3.2c2.1,2.1,3.2,4.6,3.2,7.6v32.2c0,3,1.1,5.5,3.2,7.6s4.6,3.1,7.6,3.1h32.2c3,0,5.5,1.1,7.6,3.2c2.1,2.1,3.2,4.6,3.2,7.6s-1.1,5.5-3.2,7.6c-2.1,2.1-4.6,3.2-7.6,3.2H42.2c-8.9,0-16.5-3.2-22.8-9.4c-6.3-6.3-9.4-13.9-9.4-22.8v-32.2c0-3,1.1-5.5,3.2-7.6C15.3,171.9,17.8,170.9,20.8,170.9L20.8,170.9z M42.2,10h32.2c3,0,5.5,1.1,7.6,3.2c2.1,2.1,3.2,4.6,3.2,7.6c0,3-1.1,5.5-3.2,7.6c-2.1,2.1-4.6,3.2-7.6,3.2H42.2c-3,0-5.5,1.1-7.6,3.2c-2.1,2.1-3.2,4.6-3.2,7.6v32.2c0,3-1,5.5-3.2,7.6c-2.1,2.1-4.6,3.2-7.6,3.2c-3,0-5.5-1.1-7.6-3.2c-2.1-2.1-3.2-4.6-3.2-7.6V42.2c0-8.9,3.2-16.5,9.4-22.8C25.8,13.2,33.3,10,42.2,10L42.2,10z M235.3,170.9c3,0,5.5,1,7.6,3.2c2.1,2.1,3.2,4.6,3.2,7.6v32.2c0,8.9-3.2,16.5-9.4,22.8c-6.3,6.3-13.9,9.4-22.8,9.4h-32.2c-3,0-5.5-1.1-7.6-3.2c-2.1-2.1-3.2-4.6-3.2-7.6s1.1-5.5,3.2-7.6c2.1-2.1,4.6-3.2,7.6-3.2h32.2c3,0,5.5-1.1,7.6-3.2c2.1-2.1,3.1-4.6,3.1-7.6v-32.2c0-3,1.1-5.5,3.2-7.6C229.8,171.9,232.3,170.9,235.3,170.9L235.3,170.9z"/></g></g></g>
</svg>