<svg xmlns="http://www.w3.org/2000/svg"  viewBox="0 0 24 24" width="24px" height="24px"><path d="M 9.6386719 1.9863281 C 8.1833441 1.9863281 6.9941406 3.1919124 6.9941406 4.640625 L 6.9941406 10.867188 A 1.0001 1.0001 0 0 0 6.9941406 11.136719 L 6.9941406 14.373047 C 6.9941406 15.821759 8.1928994 17.013672 9.6386719 17.013672 L 14.359375 17.013672 C 15.805148 17.013672 17.003906 15.821759 17.003906 14.373047 L 17.003906 11.207031 A 1.0001 1.0001 0 0 0 17.003906 10.798828 L 17.003906 4.640625 C 17.003906 3.1919124 15.814703 1.9863281 14.359375 1.9863281 L 9.6386719 1.9863281 z M 4.9960938 8.9863281 A 1.0001 1.0001 0 0 0 4.0117188 10 L 4.0117188 14.560547 C 4.0117188 17.553294 6.4565734 20 9.4433594 20 L 10.998047 20 L 10.998047 21 L 8.9980469 21 A 1.0001 1.0001 0 1 0 8.9980469 23 L 14.994141 23 A 1.0001 1.0001 0 1 0 14.994141 21 L 12.998047 21 L 12.998047 20 L 14.5625 20 C 17.550064 20 19.992187 17.553022 19.992188 14.560547 L 19.992188 10 A 1.0001 1.0001 0 1 0 17.992188 10 L 17.992188 14.560547 C 17.992188 16.474071 16.466936 18 14.5625 18 L 9.4433594 18 C 7.5401453 18 6.0117188 16.4738 6.0117188 14.560547 L 6.0117188 10 A 1.0001 1.0001 0 0 0 4.9960938 8.9863281 z M 8.9941406 12 L 15.003906 12 L 15.003906 14.373047 C 15.003906 14.738334 14.727602 15.013672 14.359375 15.013672 L 9.6386719 15.013672 C 9.2704444 15.013672 8.9941406 14.738334 8.9941406 14.373047 L 8.9941406 12 z"/></svg>