<?xml version="1.0" encoding="utf-8"?>
<!-- Svg Vector Icons : http://www.onlinewebfonts.com/icon -->
<!DOCTYPE svg PUBLIC "-//W3C//DTD SVG 1.1//EN" "http://www.w3.org/Graphics/SVG/1.1/DTD/svg11.dtd">
<svg version="1.1" xmlns="http://www.w3.org/2000/svg" xmlns:xlink="http://www.w3.org/1999/xlink" x="0px" y="0px" viewBox="0 0 256 256" enable-background="new 0 0 256 256" xml:space="preserve">
<metadata> Svg Vector Icons : http://www.onlinewebfonts.com/icon </metadata>
<g><g><g><path fill="#000000" d="M33.3,10.7c-8.8,1.9-16.7,8.3-20.6,16.5C9.9,33.6,10,28.2,10,128c0,81.1,0.1,91.2,0.7,94.4c1.9,9.2,7.7,16.6,16.1,20.7c6.6,3.2,0.5,3,101.2,3c100.7,0,94.6,0.2,101.2-3c8.4-4.1,14.2-11.5,16.1-20.7c0.6-3.1,0.7-13.3,0.7-94.4c0-100.7,0.2-94.6-3-101.2c-4.1-8.4-11.5-14.2-20.7-16.1c-3.1-0.6-13.2-0.7-94.7-0.7C48.9,10.1,36,10.2,33.3,10.7z M54.3,39.5v14.8H39.5H24.8v-8.4c0-5.8,0.2-9.1,0.6-10.6c1.3-4.4,5.3-8.5,9.7-9.9c1.2-0.4,4.9-0.6,10.6-0.6l8.6,0L54.3,39.5L54.3,39.5z M187,72.7v47.9h-59H69V72.7V24.7h59h59L187,72.7L187,72.7z M222.7,26.1c2.9,1.5,5.7,4.3,7.2,7.2c1.1,2.2,1.1,2.8,1.2,11.6l0.1,9.4h-14.8h-14.8V39.4V24.7l9.4,0.1C219.9,25,220.6,25,222.7,26.1z M54.3,83.7v14.8H39.5H24.8V83.7V69h14.8h14.8V83.7z M231.3,83.7v14.8h-14.8h-14.8V83.7V69h14.8h14.8V83.7z M54.3,128v14.7H39.5H24.8V128v-14.8h14.8h14.8V128z M231.3,128v14.7h-14.8h-14.8V128v-14.8h14.8h14.8V128z M187,183.3v47.9h-59H69v-47.9v-47.9h59h59L187,183.3L187,183.3z M54.3,172.2V187H39.5H24.8v-14.8v-14.8h14.8h14.8V172.2z M231.3,172.2V187h-14.8h-14.8v-14.8v-14.8h14.8h14.8V172.2z M54.3,216.5v14.8l-9.3-0.1c-8.8-0.1-9.5-0.2-11.7-1.2c-2.9-1.5-5.7-4.3-7.2-7.2c-1.1-2.2-1.1-2.8-1.2-11.7l-0.1-9.3h14.8h14.8L54.3,216.5L54.3,216.5z M231.2,211c-0.1,8.9-0.2,9.5-1.3,11.7c-1.4,2.9-4.2,5.7-7.1,7.1c-2.2,1.1-2.8,1.2-11.6,1.3l-9.4,0.1v-14.8v-14.8h14.8h14.8L231.2,211z"/></g></g></g>
</svg>