<?xml version="1.0" encoding="utf-8"?>
<!-- Svg Vector Icons : http://www.onlinewebfonts.com/icon -->
<!DOCTYPE svg PUBLIC "-//W3C//DTD SVG 1.1//EN" "http://www.w3.org/Graphics/SVG/1.1/DTD/svg11.dtd">
<svg version="1.1" xmlns="http://www.w3.org/2000/svg" xmlns:xlink="http://www.w3.org/1999/xlink" x="0px" y="0px" viewBox="0 0 256 256" enable-background="new 0 0 256 256" xml:space="preserve">
<metadata> Svg Vector Icons : http://www.onlinewebfonts.com/icon </metadata>
<g><g><g><path fill="#000000" d="M40.2,10.5c-1.2,0.4-2.8,1.2-3.5,1.9c-3.3,3.1-3.1-4.3-3.1,115.7v111.1l1.4,2c0.7,1.2,2.3,2.6,3.5,3.3c2.1,1.2,3,1.3,28,1.3c25.1,0,25.9-0.1,27.5-1.3c0.9-0.7,2.2-2,2.9-2.9c1.3-1.6,1.3-1.8,1.6-111.7c0.2-60.5,0.1-111-0.1-112.1c-0.5-2.4-2-4.6-4.4-6.4c-1.6-1.2-2.4-1.3-26.6-1.4C51.8,10,41.5,10.1,40.2,10.5z M79.9,127.9v99l-13.7,0.2l-13.8,0.1v-99.3V28.6l13.8,0.1l13.7,0.2V127.9z"/><path fill="#000000" d="M164,10.4c-1,0.3-2.8,1.6-3.9,2.7l-2.1,2.2V128v112.7l2.5,2.4c3.3,3.1,4.1,3.1,32,2.9c21.9-0.2,23.1-0.2,25.1-1.5c1.2-0.7,2.7-2.1,3.5-3.3l1.4-2V127.9V16.7l-1.4-2c-0.7-1.2-2.3-2.6-3.5-3.3c-2.1-1.2-3.1-1.3-27-1.4C177.1,10,165,10.1,164,10.4z M203.7,127.9v99.3l-13.7-0.1l-13.8-0.2l-0.2-98.4c-0.1-54.1,0-98.8,0.2-99.2c0.2-0.5,3.6-0.7,13.9-0.7h13.6V127.9z"/></g></g></g>
</svg>