<?xml version="1.0" encoding="utf-8"?>
<!-- Svg Vector Icons : http://www.onlinewebfonts.com/icon -->
<!DOCTYPE svg PUBLIC "-//W3C//DTD SVG 1.1//EN" "http://www.w3.org/Graphics/SVG/1.1/DTD/svg11.dtd">
<svg version="1.1" xmlns="http://www.w3.org/2000/svg" xmlns:xlink="http://www.w3.org/1999/xlink" x="0px" y="0px" viewBox="0 0 256 256" enable-background="new 0 0 256 256" xml:space="preserve">
<metadata> Svg Vector Icons : http://www.onlinewebfonts.com/icon </metadata>
<g><g><g><path fill="#000000" d="M33.5,10.8c-2.1,1-4,3-4.8,5.1c-0.5,1.1-0.6,35.3-0.6,112.3c0,122.3-0.3,113.1,3.7,116.2c1.8,1.4,2.7,1.6,5.3,1.6l3.2-0.1l92.4-55.5c68.7-41.2,92.8-56,93.7-57.4c1.8-2.6,1.8-7.3,0-9.9c-1-1.4-25-16.1-93.7-57.3C33.3,6.1,37.9,8.8,33.5,10.8z M200.6,128c0.1,0.2-34.6,21.2-77.1,46.7l-77.2,46.3v-93V35l77.1,46.3C165.8,106.8,200.6,127.8,200.6,128z"/></g></g></g>
</svg>