<?xml version="1.0" encoding="utf-8"?>
<!-- Svg Vector Icons : http://www.onlinewebfonts.com/icon -->
<!DOCTYPE svg PUBLIC "-//W3C//DTD SVG 1.1//EN" "http://www.w3.org/Graphics/SVG/1.1/DTD/svg11.dtd">
<svg version="1.1" xmlns="http://www.w3.org/2000/svg" xmlns:xlink="http://www.w3.org/1999/xlink" x="0px" y="0px" viewBox="0 0 256 256" enable-background="new 0 0 256 256" xml:space="preserve">
<metadata> Svg Vector Icons : http://www.onlinewebfonts.com/icon </metadata>
<g><g><path fill="#000000" d="M206.7,81.5c-5-0.8-9.6,2.5-10.4,7.4c-0.8,5,2.5,9.6,7.4,10.4c14.2,2.4,24.2,14.9,24.2,30.2c0,14.7-10.3,27.4-24.5,30.2c-4.9,1-8.2,5.8-7.1,10.7c0.9,4.3,4.6,7.3,8.9,7.3c0.6,0,1.2,0,1.8-0.2c22.7-4.4,39.1-24.7,39.1-47.9C246,105.5,229.4,85.3,206.7,81.5L206.7,81.5z"/><path fill="#000000" d="M168.4,1.8c-3-1.6-6.5-1.5-9.3,0.4L68.3,73.6H38c-15.4,0-28,11-28,24.5l0.5,59.8c0,13.4,12.5,24.3,28,24.3h30.2l90.4,71.6c1.5,1.1,3.3,1.5,5.1,1.5c1.5,0,2.9-0.4,4.3-1c2.9-1.6,4.8-4.7,4.8-8.1V9.8C173.2,6.4,171.3,3.3,168.4,1.8z M155.1,229.3l-78.6-63.6c-1.5-1-3.2-1.5-5-1.5h-33c-5.8,0-9.9-3.2-9.9-6.3L28.1,98c0-3,4.1-6.3,9.9-6.3h33c1.8,0,3.6-0.5,5.1-1.5l79.1-63.4L155.1,229.3L155.1,229.3z"/></g></g>
</svg>