<svg width="320" height="320" viewBox="0 0 320 320" fill="none" xmlns="http://www.w3.org/2000/svg">
  <image href="/images/nero.png" x="0" y="0" width="320" height="320"/>
  <g transform="translate(160,40) scale(4.5) translate(-12.5,0)">
    <path d="M 9.6289062 1.9960938 C 8.1775972 1.9960937 6.9902344 3.194375 6.9902344 4.640625 L 6.9902344 11.189453 A 0.750075 0.750075 0 0 0 6.9902344 11.302734 L 6.9902344 14.373047 C 6.9902344 15.819297 8.1838353 17.003906 9.6289062 17.003906 L 14.367188 17.003906 C 15.811646 17.003906 17.005859 15.819778 17.005859 14.373047 L 17.005859 11.333984 A 0.750075 0.750075 0 0 0 17.005859 11.167969 L 17.005859 4.640625 C 17.005859 3.194375 15.818497 1.9960936 14.367188 1.9960938 L 9.6289062 1.9960938 z M 9.6289062 3.4960938 L 14.367188 3.4960938 C 14.999878 3.4960938 15.505859 4.006875 15.505859 4.640625 L 15.505859 10.503906 L 8.4902344 10.503906 L 8.4902344 4.640625 C 8.4902344 4.006875 8.9962153 3.4960937 9.6289062 3.4960938 z M 5.234375 9.2402344 A 0.750075 0.750075 0 0 0 4.4960938 10 L 4.4960938 15.027344 C 4.4960938 17.487309 6.5080959 19.509766 8.9726562 19.509766 L 10.996094 19.509766 L 10.996094 21.503906 L 8.7480469 21.503906 A 0.750075 0.750075 0 1 0 8.7480469 23.003906 L 15.253906 23.003906 A 0.750075 0.750075 0 1 0 15.253906 21.503906 L 12.998047 21.503906 L 12.998047 19.509766 L 15.029297 19.509766 C 17.493857 19.509766 19.507812 17.487309 19.507812 15.027344 L 19.507812 10 A 0.750075 0.750075 0 1 0 18.007812 10 L 18.007812 15.027344 C 18.007812 16.673378 16.676737 18.009766 15.029297 18.009766 L 8.9726562 18.009766 C 7.3252166 18.009766 5.9960937 16.673378 5.9960938 15.027344 L 5.9960938 10 A 0.750075 0.750075 0 0 0 5.234375 9.2402344 z M 8.4902344 12.003906 L 15.505859 12.003906 L 15.505859 14.373047 C 15.505859 15.006316 15.004729 15.503906 14.367188 15.503906 L 9.6289062 15.503906 C 8.9899774 15.503906 8.4902344 15.006797 8.4902344 14.373047 L 8.4902344 12.003906 z" fill="#ff98ff"/>
  </g>
</svg> 